<?xml version="1.0" standalone="no"?>
<!DOCTYPE svg PUBLIC "-//W3C//DTD SVG 20010904//EN"
 "http://www.w3.org/TR/2001/REC-SVG-20010904/DTD/svg10.dtd">
<svg version="1.0" xmlns="http://www.w3.org/2000/svg"
 width="16.000000pt" height="16.000000pt" viewBox="0 0 16.000000 16.000000"
 preserveAspectRatio="xMidYMid meet">

<g transform="translate(0.000000,16.000000) scale(0.100000,-0.100000)"
fill="#000000" stroke="none">
<path d="M37 123 c-4 -3 -7 -18 -7 -33 0 -32 35 -69 51 -53 7 7 4 14 -8 24
-16 13 -17 12 -4 -3 7 -10 9 -18 4 -18 -18 0 -33 24 -33 53 0 26 3 28 33 25
20 -2 32 -8 32 -18 0 -8 -7 -14 -15 -12 -11 3 -10 -2 4 -17 11 -12 20 -21 20
-21 5 0 -1 58 -7 68 -9 13 -59 17 -70 5z"/>
</g>
</svg>
